<?xml version="1.0" standalone="no"?>
<!DOCTYPE svg PUBLIC "-//W3C//DTD SVG 20010904//EN"
 "http://www.w3.org/TR/2001/REC-SVG-20010904/DTD/svg10.dtd">
<svg version="1.0" xmlns="http://www.w3.org/2000/svg"
 width="512.000000pt" height="512.000000pt" viewBox="0 0 512.000000 512.000000"
 preserveAspectRatio="xMidYMid meet">
<metadata>
Created by potrace 1.11, written by Peter Selinger 2001-2013
</metadata>
<g transform="translate(0.000000,512.000000) scale(0.100000,-0.100000)"
fill="#000000" stroke="none">
<path d="M2337 5113 c-2 -5 -3 -122 -3 -260 1 -139 1 -253 1 -253 0 -1 -18 -3
-40 -6 -464 -59 -814 -287 -985 -642 -29 -62 -66 -169 -74 -217 -3 -16 -9 -50
-14 -75 -15 -79 -14 -252 2 -357 51 -337 228 -587 550 -775 125 -74 345 -177
506 -238 19 -7 40 -18 45 -25 6 -8 9 -189 8 -506 0 -272 -2 -497 -2 -501 -2
-13 -112 3 -313 47 -206 45 -546 182 -671 271 -26 19 -50 34 -55 34 -4 0 -7
-170 -7 -379 l0 -378 70 -36 c89 -45 118 -57 235 -100 82 -31 117 -41 165 -52
6 -2 39 -10 75 -18 36 -9 94 -20 130 -26 36 -5 82 -13 102 -16 21 -3 86 -8
145 -11 60 -3 113 -6 118 -8 6 -2 10 -109 10 -295 l-1 -291 198 0 c151 0 198
3 199 13 0 6 1 141 1 300 1 284 1 287 22 292 12 2 53 9 91 16 39 6 78 13 87
15 43 7 215 57 260 75 168 66 324 166 422 269 144 153 219 302 260 520 20 102
15 340 -9 440 -41 171 -131 333 -258 461 -74 74 -91 89 -177 152 -134 98 -374
223 -591 308 l-87 33 0 528 c1 479 2 528 17 528 36 -1 203 -31 301 -56 162
-41 415 -144 502 -205 14 -11 30 -19 35 -19 6 0 10 148 10 377 l-1 377 -50 24
c-63 29 -146 63 -166 67 -8 2 -40 10 -70 19 -67 19 -258 52 -360 62 -41 4 -86
8 -100 10 -14 1 -46 2 -72 3 l-46 1 0 238 c0 130 -1 245 -1 255 -1 16 -18 17
-205 17 -113 0 -207 -3 -209 -7z m-4 -1591 c0 -229 -2 -427 -2 -440 l-1 -22
-37 19 c-72 37 -181 121 -227 174 -89 103 -122 195 -113 321 8 118 49 202 130
267 46 37 175 93 222 97 l30 2 -2 -418z m574 -1505 c160 -105 222 -197 231
-343 7 -119 -22 -199 -97 -275 -69 -68 -144 -104 -272 -129 l-36 -7 0 423 0
422 53 -23 c29 -13 84 -44 121 -68z"/>
</g>
</svg>
